# xmcd CD database file
#
# Track frame offsets:
#	150
#	34452
#	74659
#	102951
#	145828
#	170231
#
# Disc length: 2941 seconds
#
# Revision: 0
# Processed by: cddbd v1.5.2PL0 Copyright (c) Steve Scherf et al.
# Submitted via: CDex 2.18
#
DISCID=5d0b7b06
DTITLE=Case Closed - Agree 2 Disagree
DYEAR=1994
DGENRE=Jazz
TTITLE0=Fragile Strength
TTITLE1=The Joy Grind
TTITLE2=The Softness of You
TTITLE3=Bye Bye Blackbird
TTITLE4=Agree to Disagree
TTITLE5='81
EXTD=YEAR: 1994
EXTT0=
EXTT1=
EXTT2=
EXTT3=
EXTT4=
EXTT5=
PLAYORDER=
